<svg width="1854" height="1027" viewBox="0 0 1854 1027" fill="none" xmlns="http://www.w3.org/2000/svg">
<g style="mix-blend-mode:plus-darker" filter="url(#filter0_f_1418_2061)">
<path d="M196.512 641.517C183.643 656.456 173.401 670.113 167.07 679.357C166.408 680.77 165.783 682.165 165.308 683.634C164.408 687.154 164.105 703.181 165.827 718.109C166.613 720.289 167.622 722.203 169.73 722.528C174.647 723.288 182.488 725.973 189.771 719.074C199.259 710.087 207.831 702.201 235.596 688.519L235.615 688.51C250.913 680.971 267.84 672.629 293.223 670.086C308.92 668.513 330.17 668.326 357.166 670.936C384.162 673.545 415.899 679.263 434.068 681.437C456.532 684.124 474.323 685.452 499.483 691.795C511.904 694.926 523.496 698.855 543.039 703.571C562.581 708.287 589.266 713.627 612.463 716.647C635.66 719.667 654.789 720.344 671.269 719.384C687.723 718.425 701.13 715.91 709.19 714.398L709.228 714.391L709.238 714.389C717.286 712.879 719.909 712.387 754.98 697.766C790.065 683.14 855.639 655.22 905.037 637.956C954.434 620.692 986.679 614.279 1014.49 610.528C1042.3 606.777 1065 605.719 1093.2 604.449C1121.4 603.18 1154.13 601.742 1175.39 601.895C1196.65 602.048 1206.17 603.741 1227.13 611.94C1248.08 620.139 1279.52 634.412 1332.67 671.547C1385.82 708.683 1458.48 766.915 1504.76 800.602C1551.03 834.289 1570.17 843.791 1582.82 848.24C1600.78 854.562 1616.02 864.235 1639.6 866.111C1668.46 868.408 1686.79 867.406 1686.9 863.203C1687.04 858.137 1683.82 849.836 1682.16 839.456C1679.8 824.754 1682.94 811.074 1681.08 802.41C1679.52 795.126 1676.5 785.009 1677.34 722.304C1678.11 665.319 1680.53 560.26 1683.51 489.925C1686.49 419.59 1689.93 385.025 1691.87 355.12C1693.81 325.214 1694.81 300.678 1693.74 280.615C1691.84 245.292 1691.39 216.598 1682.19 207.389C1680.54 205.735 1678.68 204.999 1677.06 205.665C1673.84 206.993 1663.14 215.174 1638.16 231.89C1622.45 242.406 1600.67 256.22 1587.86 264.203C1563.74 279.231 1554.38 291.478 1544.58 295.413C1540.7 296.969 1516.28 301.135 1472.36 312.016C1450.21 317.502 1428.51 323.861 1414.94 327.613C1401.36 331.365 1396.08 332.477 1386.17 332.914C1376.26 333.351 1362.16 333.12 1335.78 327.138C1309.39 321.155 1271.86 309.768 1236.03 300.02C1200.19 290.272 1167.13 281.839 1148.85 278.463C1127.46 274.513 1121.58 271.212 1115.13 268.792C1103.13 264.289 1080.43 257.979 1042.33 271.01C1030.25 275.144 1015.13 282.767 988.793 304.961C971.774 319.301 948.442 340.684 928.058 363.122C907.673 385.561 890.749 408.365 880.533 421.643C870.317 434.922 866.913 438.565 859.506 447.777C852.099 456.989 841.024 471.336 825.973 486.849C810.921 502.363 792.452 518.553 767.068 535.923C741.685 553.292 710.337 571.296 688.493 582.724C666.65 594.153 654.765 599.3 646.265 601.649C633.16 605.271 610.78 607.312 579.717 605.575C565.76 604.795 555.301 603.161 535.838 597.009C516.375 590.858 488.745 580.502 472.147 574.718C455.549 568.934 450.145 567.758 422.616 568.783C395.088 569.808 346.895 572.939 315.81 577.247C284.725 581.556 270.913 586.223 259.473 592.751C238.267 604.85 216.16 618.707 196.512 641.517Z" fill="#FF6F00"/>
</g>
<g style="mix-blend-mode:overlay" filter="url(#filter1_f_1418_2061)">
<path d="M196.512 641.517C183.643 656.456 173.401 670.113 167.07 679.357C166.408 680.77 165.783 682.165 165.308 683.634C164.408 687.154 164.105 703.181 165.827 718.109C166.613 720.289 167.622 722.203 169.73 722.528C174.647 723.288 182.488 725.973 189.771 719.074C199.259 710.087 207.831 702.201 235.596 688.519L235.615 688.51C250.913 680.971 267.84 672.629 293.223 670.086C308.92 668.513 330.17 668.326 357.166 670.936C384.162 673.545 415.899 679.263 434.068 681.437C456.532 684.124 474.323 685.452 499.483 691.795C511.904 694.926 523.496 698.855 543.039 703.571C562.581 708.287 589.266 713.627 612.463 716.647C635.66 719.667 654.789 720.344 671.269 719.384C687.723 718.425 701.13 715.91 709.19 714.398L709.228 714.391L709.238 714.389C717.286 712.879 719.909 712.387 754.98 697.766C790.065 683.14 855.639 655.22 905.037 637.956C954.434 620.692 986.679 614.279 1014.49 610.528C1042.3 606.777 1065 605.719 1093.2 604.449C1121.4 603.18 1154.13 601.742 1175.39 601.895C1196.65 602.048 1206.17 603.741 1227.13 611.94C1248.08 620.139 1279.52 634.412 1332.67 671.547C1385.82 708.683 1458.48 766.915 1504.76 800.602C1551.03 834.289 1570.17 843.791 1582.82 848.24C1600.78 854.562 1616.02 864.235 1639.6 866.111C1668.46 868.408 1686.79 867.406 1686.9 863.203C1687.04 858.137 1683.82 849.836 1682.16 839.456C1679.8 824.754 1682.94 811.074 1681.08 802.41C1679.52 795.126 1676.5 785.009 1677.34 722.304C1678.11 665.319 1680.53 560.26 1683.51 489.925C1686.49 419.59 1689.93 385.025 1691.87 355.12C1693.81 325.214 1694.81 300.678 1693.74 280.615C1691.84 245.292 1691.39 216.598 1682.19 207.389C1680.54 205.735 1678.68 204.999 1677.06 205.665C1673.84 206.993 1663.14 215.174 1638.16 231.89C1622.45 242.406 1600.67 256.22 1587.86 264.203C1563.74 279.231 1554.38 291.478 1544.58 295.413C1540.7 296.969 1516.28 301.135 1472.36 312.016C1450.21 317.502 1428.51 323.861 1414.94 327.613C1401.36 331.365 1396.08 332.477 1386.17 332.914C1376.26 333.351 1362.16 333.12 1335.78 327.138C1309.39 321.155 1271.86 309.768 1236.03 300.02C1200.19 290.272 1167.13 281.839 1148.85 278.463C1127.46 274.513 1121.58 271.212 1115.13 268.792C1103.13 264.289 1080.43 257.979 1042.33 271.01C1030.25 275.144 1015.13 282.767 988.793 304.961C971.774 319.301 948.442 340.684 928.058 363.122C907.673 385.561 890.749 408.365 880.533 421.643C870.317 434.922 866.913 438.565 859.506 447.777C852.099 456.989 841.024 471.336 825.973 486.849C810.921 502.363 792.452 518.553 767.068 535.923C741.685 553.292 710.337 571.296 688.493 582.724C666.65 594.153 654.765 599.3 646.265 601.649C633.16 605.271 610.78 607.312 579.717 605.575C565.76 604.795 555.301 603.161 535.838 597.009C516.375 590.858 488.745 580.502 472.147 574.718C455.549 568.934 450.145 567.758 422.616 568.783C395.088 569.808 346.895 572.939 315.81 577.247C284.725 581.556 270.913 586.223 259.473 592.751C238.267 604.85 216.16 618.707 196.512 641.517Z" fill="#FFCF00"/>
</g>
<g style="mix-blend-mode:plus-lighter" filter="url(#filter2_f_1418_2061)">
<path d="M468.505 607.037C444.283 613.87 440.115 614.543 439.859 614.543C438.065 617.456 439.401 621.802 438.375 625.01C438.363 632.06 439.427 639.001 444.726 643.556C450.241 648.296 457.704 653.268 468.824 657.648C478.005 661.265 487.203 663.627 495.855 666.061C504.538 668.503 516.834 671.199 530.654 672.324C556.459 674.426 575.395 676.283 599.408 676.457C632.507 676.698 655.561 676.553 660.011 676.061C665.452 675.458 679.377 675.205 696.172 673.51C704.337 672.685 723.284 671.8 757.836 666.027C776.25 662.951 795.975 657.828 809.505 655.811C840.553 651.182 853.962 650.75 877.356 645.829C893.565 642.419 922.746 636.301 945.62 631.876C968.494 627.451 984.573 624.799 1006.58 623.322C1028.58 621.844 1055.69 621.791 1070.16 621.24C1086.43 620.619 1090.23 619.924 1109.47 620.373C1126.78 620.778 1158.52 621.725 1181.48 622.537C1204.43 623.349 1218.22 623.71 1226.19 624.54C1240.67 626.049 1248.72 627.605 1257.13 629.239C1265.18 630.801 1275.77 633.981 1286.79 639.425C1301.65 646.77 1325.78 663.642 1354.05 673.308C1394.09 687 1423.6 697.171 1430.79 698.882C1438.99 700.833 1448.11 704.042 1462.86 711.205C1488.85 723.833 1500.5 733.549 1535.73 726.774C1552.19 723.607 1563.61 720.931 1567.37 715.031C1571.29 708.895 1577.13 693.345 1578.22 681.896C1579.76 665.653 1581.93 640.07 1582.16 625.81C1582.43 608.987 1584.27 591.267 1584.66 553.879C1584.98 523.866 1584.67 472.746 1583.05 436.55C1581.44 400.354 1579.37 379.568 1575.64 364.986C1569.69 341.725 1563.3 314.94 1550.34 308.858C1546.76 307.177 1517.69 306.761 1479.46 308.012C1460.48 308.632 1426.45 309.8 1408.11 309.76L1408.05 309.76C1387.18 309.713 1375.53 309.687 1342.02 299.223C1322.48 293.118 1294.69 284.678 1264.52 281.629C1239.47 279.098 1224.37 274.711 1192.05 256.599C1177.32 248.347 1164.49 238.87 1150.2 233.276C1128.7 224.857 1108.04 218.686 1093.98 211.192C1073.38 200.219 1064.39 199.234 1056.46 196.301C1047 192.802 1039.57 187.722 1020.73 188.27C964.13 189.915 949.142 191.293 938.159 202.059C928.396 211.629 910.912 232.27 890.212 257.5C875.398 275.556 868.373 284.49 865.5 288.583C858.215 298.961 848.461 309.691 838.673 321.76C828.796 333.939 811.154 355.25 791.128 374.568C781.974 383.399 776.809 389.256 769.382 396.424C754.787 410.51 743.936 428.763 723.74 449.786C702.031 472.384 686.416 489.544 675.862 498.785C657.233 515.096 640.858 529.712 623.314 540.893C594.206 559.443 572.075 573.262 545.964 582.111C524.908 589.248 488.848 601.299 468.505 607.037Z" fill="#E68D8C"/>
</g>
<g style="mix-blend-mode:plus-darker" filter="url(#filter3_f_1418_2061)">
<path d="M1588.07 223.874C1613.34 195.565 1640.58 154.153 1642.66 149.156C1643.76 151.145 1647.9 155.185 1649.02 157.077C1651.33 160.769 1655.09 166.982 1658.43 177.199C1662.09 188.01 1666.97 196.366 1670.91 210.592C1677.38 233.965 1687.2 276.606 1689.61 294.586C1691.47 308.503 1693.13 326.017 1693.31 379.029C1693.46 422.994 1693.46 499.561 1692.91 542.146C1692.37 584.732 1691.56 611.929 1687.87 628.334C1678.78 668.749 1671.92 708.109 1656.51 719.892C1647.58 726.726 1630.53 742.507 1587.94 746.034C1570.51 747.478 1545.35 748.317 1530.5 747.312C1503.82 745.506 1484.07 731.38 1449.42 722.247C1425.34 715.9 1398.04 702.823 1366.06 679.651C1353.1 670.264 1340.5 662.207 1326.92 660.308C1308.65 657.753 1298.86 648.949 1263.42 614.112C1252.95 603.821 1225.9 570.074 1181.4 560.9C1161.24 556.746 1145.25 557.05 1120.71 561.225C1096.16 565.4 1064.04 573.21 1041.1 580.173C1018.16 587.136 1004.85 593.291 996.958 596.35C982.154 602.09 971.387 603.919 936.679 619.743C912.685 630.682 870.197 650.952 847.893 661.599C825.59 672.247 823.555 673.37 811.349 676.837C777.509 686.449 751.983 697.299 753.356 695.911C755.04 694.207 771.008 676.386 787.615 665.494C802.729 655.581 812.967 649.209 835.954 619.673C847.043 605.424 869.499 580.558 893.738 549.591C903.859 536.66 906.01 532.152 911.002 525.519C928.614 502.116 949.667 479.038 968.909 456.369C983.108 439.642 997.451 421.577 1020.37 405.128C1060.67 376.205 1089.36 358.223 1099.18 350.223C1115.15 337.201 1144.26 318.553 1178.68 304.018C1193.39 297.807 1203.07 294.837 1218.69 291.726C1234.31 288.616 1255.21 284.682 1273.43 283.991C1306.66 282.731 1323.82 283.07 1330.41 284.861C1351.3 290.542 1362.45 296.472 1372.09 297.51C1396.27 300.11 1431.14 298.183 1441.87 297.394C1459.63 296.088 1475.49 286.401 1489.91 281.346C1502.86 276.806 1513.74 267.695 1529.84 258.335C1558.12 241.889 1574.12 239.504 1588.07 223.874Z" fill="#FF6F00"/>
</g>
<g style="mix-blend-mode:plus-darker" filter="url(#filter4_f_1418_2061)">
<path d="M624.591 684.911C722.199 724.402 818.213 623.244 912.376 623.244C1017.51 567.703 784.419 600.828 753.302 588.628C642.126 545.042 280.737 391.982 220.748 584.916C193.611 672.195 526.04 645.039 624.591 684.911Z" fill="#FF6F00"/>
</g>
<defs>
<filter id="filter0_f_1418_2061" x="0.759537" y="46.0037" width="1852.84" height="980.728" filterUnits="userSpaceOnUse" color-interpolation-filters="sRGB">
<feFlood flood-opacity="0" result="BackgroundImageFix"/>
<feBlend mode="normal" in="SourceGraphic" in2="BackgroundImageFix" result="shape"/>
<feGaussianBlur stdDeviation="79.7086" result="effect1_foregroundBlur_1418_2061"/>
</filter>
<filter id="filter1_f_1418_2061" x="82.0311" y="127.275" width="1690.29" height="818.185" filterUnits="userSpaceOnUse" color-interpolation-filters="sRGB">
<feFlood flood-opacity="0" result="BackgroundImageFix"/>
<feBlend mode="normal" in="SourceGraphic" in2="BackgroundImageFix" result="shape"/>
<feGaussianBlur stdDeviation="39.0728" result="effect1_foregroundBlur_1418_2061"/>
</filter>
<filter id="filter2_f_1418_2061" x="250.825" y="0.679092" width="1521.5" height="915.868" filterUnits="userSpaceOnUse" color-interpolation-filters="sRGB">
<feFlood flood-opacity="0" result="BackgroundImageFix"/>
<feBlend mode="normal" in="SourceGraphic" in2="BackgroundImageFix" result="shape"/>
<feGaussianBlur stdDeviation="93.7748" result="effect1_foregroundBlur_1418_2061"/>
</filter>
<filter id="filter3_f_1418_2061" x="628.27" y="24.1229" width="1190.16" height="848.662" filterUnits="userSpaceOnUse" color-interpolation-filters="sRGB">
<feFlood flood-opacity="0" result="BackgroundImageFix"/>
<feBlend mode="normal" in="SourceGraphic" in2="BackgroundImageFix" result="shape"/>
<feGaussianBlur stdDeviation="62.5166" result="effect1_foregroundBlur_1418_2061"/>
</filter>
<filter id="filter4_f_1418_2061" x="69.139" y="339.746" width="1020.32" height="504.352" filterUnits="userSpaceOnUse" color-interpolation-filters="sRGB">
<feFlood flood-opacity="0" result="BackgroundImageFix"/>
<feBlend mode="normal" in="SourceGraphic" in2="BackgroundImageFix" result="shape"/>
<feGaussianBlur stdDeviation="75.0199" result="effect1_foregroundBlur_1418_2061"/>
</filter>
</defs>
</svg>
