<svg width="1425" height="813" viewBox="0 0 1425 813" fill="none" xmlns="http://www.w3.org/2000/svg">
<g filter="url(#filter0_f_1429_2110)">
<path d="M183.403 344.573C171.215 350.562 154.986 357.097 150.331 366.501C143.453 371.885 137.701 378.956 130.967 389.305C123.376 399.254 117.7 408.163 114.099 419.014C110.773 429.04 106.782 444.134 105.082 455.026C102.776 469.809 97.1085 488.67 104.178 519.403L104.185 519.433C108.558 538.441 113.866 561.512 127.12 570.266C133.82 574.69 145.849 584.767 166.476 585.412C209.167 586.749 222.896 586.906 248.597 575.964C288.277 559.07 310.314 547.081 319.784 542.029C330.335 536.401 360.662 515.802 379.747 505.929C396.886 497.064 424.303 486.124 433.864 484.476C448.142 482.016 465.801 482.008 479.596 484.392C496.431 487.301 515.744 490.987 529.638 496.32C542.03 501.077 551.562 504.487 563.125 507.595C573.067 510.267 582.456 511.685 595.199 516.208C620.734 525.272 630.506 527.028 642.681 532.17C661.719 540.211 673.721 545.837 685.053 550.945C700.254 557.797 721.718 571.34 732.382 577.209C744.021 583.614 785.106 597.285 810.836 604.147C829.677 609.172 871.108 619.999 887.725 625.273C896.042 627.913 907.909 632.122 925.253 633.799C944.977 635.708 975.245 640.292 1012.66 642.229C1032.25 643.243 1053.08 643.098 1078.37 637.805C1103.67 632.513 1132.52 622.271 1154.48 614.848C1190.93 602.529 1210.17 597.734 1219.23 591.356C1239.1 577.377 1252.54 572.512 1262.26 566.512C1275.16 558.552 1289.73 547.814 1297.99 530.286C1314.42 495.392 1320.5 475.797 1322.11 463.127C1325.79 434.24 1325.28 398.118 1317.49 366.758C1314.67 355.42 1307.74 337.957 1298.06 319.226C1290.01 303.635 1279.62 292.975 1272.54 285.074C1263.56 275.041 1241.33 245.954 1219.44 220.197C1210.46 209.631 1202.21 203.786 1193.61 198.228C1180.45 189.722 1168.16 177.357 1103.7 171.882C1078.58 169.749 1046.85 170.822 1028.79 170.958C1006.47 171.126 999.727 169.757 988.853 169.927C966.37 170.279 934.128 177.181 898.61 183.589C865.689 189.528 847.939 193.27 843.43 194.573C833.056 197.571 820.917 200.425 803.486 209.155C774.729 223.556 747.295 239.884 731.883 249.768C716.529 259.616 679.418 294.267 658.319 311.884C637.475 329.289 611.016 353.172 590.71 362.978C570.234 372.867 541.591 388.759 513.386 392.508C485.158 396.261 448.718 398.835 419.59 393.016C395.137 388.132 379.212 380.305 357.041 372.831C336.18 365.799 325.356 352.217 300.684 341.746C284.932 335.061 258.082 333.996 235.974 334.875C207.51 336.006 195.629 338.565 183.403 344.573Z" fill="#EB0083"/>
</g>
<g style="mix-blend-mode:plus-lighter" filter="url(#filter1_f_1429_2110)">
<path d="M139.369 460.954C139.015 464.248 138.455 466.568 138.455 466.802C139.859 471.435 140.246 473.074 140.623 474.719C141.354 477.966 142.25 481.214 143.304 484.395C145.559 490.619 149.028 496.379 150.17 503.192C151.39 510.473 152.575 517.336 154.382 524.151C156.568 532.393 158.338 540.753 160.956 550.626C167.076 573.706 168.817 584.635 174.374 588.895C179.681 592.962 195.344 594.907 205.988 593.168C211.989 592.188 232.278 593.843 247.07 589.093C258.375 585.463 269.251 586.013 277.307 582.297C286.741 577.946 299.602 569.058 314.987 558.009C339.242 540.588 356.601 529.342 359.97 527.503C366.234 524.083 376.69 518.616 385.4 514.422C395.319 509.647 401.216 505.118 409.363 501.782C419.951 497.448 432.619 496.689 442.166 492.783C450.944 489.193 461.347 487.563 476.401 483.429C489.652 479.789 498.763 486.952 533.167 492.806C552.707 496.131 569.703 504.204 593.481 510.006C607.563 513.442 624.568 516.275 640.051 521.829C669.598 532.429 678.924 533.384 688.076 538.582C695.446 542.767 699.575 555.239 723.797 563.974C737.716 568.993 760.146 567.589 782.903 584.486C802.035 598.692 817.522 608.939 824.488 613.949C832.332 619.592 854.58 630.809 869.801 634.994C874.972 636.416 892.523 636.213 919.711 640.91C945.155 645.306 963.884 649.401 974.223 648.083C984.061 646.829 1000.79 647.508 1038.48 645.101C1048.53 644.46 1055.69 642.011 1076.83 636.924L1077.94 636.655C1094.67 632.628 1121.69 626.125 1136.39 623.511C1156.38 619.958 1161.29 616.547 1171.8 609.24L1172.18 608.976C1184.45 600.445 1191.05 591.492 1199.52 581.762C1206.23 574.054 1216.59 553.863 1227.94 539.309C1235.75 529.29 1250.47 516.649 1260.41 480.686C1266.14 459.942 1269.14 447.492 1269.26 435.643L1269.27 434.7C1269.54 407.957 1269.74 388.906 1264.85 373.168C1260.42 358.893 1252.73 332.513 1245.48 315.186C1228.49 274.587 1222.54 256.684 1215.45 248.077C1210.28 241.794 1203.86 236.919 1193.88 229.84C1179.29 219.496 1172.64 197.467 1160.75 193.893C1157.85 193.019 1148.03 188.314 1134.03 183.114C1120.64 178.139 1097.85 177.21 1073.25 177.868C1038.53 178.797 1013.84 179.883 1009.34 178.917C1004.73 177.928 992.234 176.051 975.693 177.884C965.308 179.036 944.071 177.229 914.114 184.157C889.943 189.747 872.38 191.049 856.257 195.075C833.987 200.636 810.819 206.803 793.871 217.216C779.61 225.978 761.945 240.913 744.873 257.3C732.756 268.93 721.151 273.95 690.625 301.507C678.28 312.651 663.535 329.102 651.692 337.496C633.5 350.39 622.498 356.785 608.087 367.56C581.001 387.813 561.769 402.882 554.095 405.796C535.271 412.945 523.933 423.237 502.983 423.586C468.872 424.155 445.744 422.862 442.798 421.439C436.654 418.471 417.989 421.29 406.736 415.657C397.073 410.82 379.813 417.091 354.679 400.76C335.527 388.315 326.651 377.34 318.146 371.85C312.414 368.15 306.995 359.663 287.053 358.698C270.566 357.899 260.556 361.036 253.666 361.712C246.468 362.418 237.97 362.738 229.755 365.496C222.024 368.093 215.464 370.404 205.243 380.453C196.001 389.539 185.786 399.816 177.48 409.767C164.803 424.953 140.928 446.446 139.369 460.954Z" fill="#5B38FF"/>
</g>
<g style="mix-blend-mode:plus-darker" filter="url(#filter2_f_1429_2110)">
<path d="M989.501 211.414C993.181 211.356 995.812 211.54 1002.4 211.879C1008.81 212.208 1016.92 212.54 1029.1 212.448C1049.06 212.298 1077.6 211.306 1100.19 213.224C1130.31 215.783 1145.33 219.741 1153.19 222.72C1160.65 225.544 1161.92 227.15 1171.08 233.073C1178.15 237.644 1182.6 240.924 1187.82 247.066C1198.34 259.438 1209.03 272.722 1218.46 284.486C1227.36 295.591 1236.17 306.647 1241.64 312.754C1249.8 321.87 1256.08 328.353 1261.2 338.269C1270.1 355.496 1275.48 369.766 1277.22 376.767L1277.51 377.959C1283.44 402.684 1284.06 432.364 1281.1 456.713L1280.95 457.887C1280.19 463.847 1276.46 478.6 1260.45 512.61C1257.51 518.851 1251.65 524.306 1240.47 531.202C1237.19 533.229 1234.72 534.229 1225.23 539.223C1217.17 543.461 1207.32 549.027 1195.66 557.211C1196.02 556.937 1193.77 558.225 1183.88 561.553C1178.96 563.212 1173.21 565.05 1165.96 567.391C1158.83 569.691 1150.58 572.369 1141.2 575.542C1117.98 583.388 1092.1 592.543 1069.87 597.194C1049.29 601.501 1032.32 601.701 1014.8 600.793C978.394 598.908 951.943 594.697 929.247 592.501C916.936 591.31 909.12 588.534 900.278 585.727C882.439 580.065 839.444 568.835 821.528 564.057C809.734 560.912 793.932 556.065 779.671 551.22C772.57 548.808 766.133 546.492 760.964 544.483C758.38 543.479 756.277 542.615 754.661 541.908C752.918 541.146 752.281 540.801 752.387 540.859C746.013 537.352 719.021 520.745 702.103 513.119C691.208 508.208 678.464 502.244 658.823 493.948C650.591 490.471 643.26 488.203 636.216 486.023C629.115 483.826 620.984 481.333 609.077 477.107C594.709 472.007 578.616 468.795 573.894 467.525C564.383 464.969 556.403 462.151 544.507 457.585C526.225 450.567 502.941 446.32 486.661 443.506C468.103 440.299 445.67 440.339 426.818 443.588C417.192 445.246 404.161 450.03 394.328 453.937C383.223 458.348 370.775 463.856 360.684 469.076C349.36 474.934 335.574 483.479 324.499 490.433C311.945 498.317 303.817 503.521 300.255 505.421C291.222 510.24 270.402 521.584 232.343 537.788C222.633 541.922 216.917 543.316 209.903 543.995C201.131 544.846 189.973 544.637 167.774 543.942C164.3 543.833 161.901 543.013 159.857 542.01C158.709 541.446 157.504 540.738 156.03 539.767C155.266 539.263 154.504 538.739 153.522 538.058C153.271 537.884 152.965 537.674 152.625 537.438C152.24 536.684 151.709 535.533 151.079 533.884C148.765 527.828 146.942 520.225 144.62 510.131L144.619 510.127L144.618 510.122L144.611 510.092C139.742 488.922 143.299 479.229 146.077 461.422C147.33 453.389 150.655 440.589 153.479 432.08C154.979 427.557 157.525 422.896 163.952 414.472L164.895 413.238L165.742 411.936C171.456 403.155 174.27 400.453 175.907 399.172L183.332 393.359L184.945 390.099C186.699 389.095 188.912 387.96 191.83 386.547C193.321 385.826 194.808 385.121 196.496 384.318C198.114 383.548 199.916 382.689 201.702 381.811C204.579 380.397 207.066 379.47 211.35 378.656C216.4 377.695 224.093 376.871 237.621 376.333C247.504 375.941 257.914 376.012 267.129 376.81C277.057 377.671 282.588 379.14 284.474 379.94C292.794 383.471 298.697 387.397 307.318 393.129C315.688 398.694 327.643 406.707 343.787 412.149C360.613 417.821 383.667 428.152 411.462 433.704C447.632 440.929 489.747 437.507 518.853 433.638C555.489 428.767 592.087 408.389 608.753 400.341C623.351 393.291 638.085 382.361 650.173 372.727C662.362 363.012 675.522 351.573 684.912 343.733C695.929 334.534 711.459 320.608 724.566 309.149C739.234 296.323 749.775 287.585 754.282 284.694C768.68 275.46 794.834 259.891 822.064 246.254C835.431 239.56 843.63 237.704 854.949 234.433C854.746 234.492 855.622 234.248 858.351 233.64C860.809 233.092 864.192 232.375 868.578 231.49C877.336 229.721 889.709 227.356 905.976 224.421C944.662 217.442 971.482 211.695 989.501 211.414Z" fill="#EB0083"/>
</g>
<g style="mix-blend-mode:plus-lighter" filter="url(#filter3_f_1429_2110)">
<path d="M183.403 344.573C171.215 350.562 154.986 357.097 150.331 366.501C143.453 371.885 137.701 378.956 130.967 389.305C123.376 399.254 117.7 408.163 114.099 419.014C110.773 429.04 106.782 444.134 105.082 455.026C102.776 469.809 97.1085 488.67 104.178 519.403L104.185 519.433C108.558 538.441 113.866 561.512 127.12 570.266C133.82 574.69 145.849 584.767 166.476 585.412C209.167 586.749 222.896 586.906 248.597 575.964C288.277 559.07 310.314 547.081 319.784 542.029C330.335 536.401 360.662 515.802 379.747 505.929C396.886 497.064 424.303 486.124 433.864 484.476C448.142 482.016 465.801 482.008 479.596 484.392C496.431 487.301 515.744 490.987 529.638 496.32C542.03 501.077 551.562 504.487 563.125 507.595C573.067 510.267 582.456 511.685 595.199 516.208C620.734 525.272 630.506 527.028 642.681 532.17C661.719 540.211 673.721 545.837 685.053 550.945C700.254 557.797 721.718 571.34 732.382 577.209C744.021 583.614 785.106 597.285 810.836 604.147C829.677 609.172 871.108 619.999 887.725 625.273C896.042 627.913 907.909 632.122 925.253 633.799C944.977 635.708 975.245 640.292 1012.66 642.229C1032.25 643.243 1053.08 643.098 1078.37 637.805C1103.67 632.513 1132.52 622.271 1154.48 614.848C1190.93 602.529 1210.17 597.734 1219.23 591.356C1239.1 577.377 1252.54 572.512 1262.26 566.512C1275.16 558.552 1289.73 547.814 1297.99 530.286C1314.42 495.392 1320.5 475.797 1322.11 463.127C1325.79 434.24 1325.28 398.118 1317.49 366.758C1314.67 355.42 1307.74 337.957 1298.06 319.226C1290.01 303.635 1279.62 292.975 1272.54 285.074C1263.56 275.041 1241.33 245.954 1219.44 220.197C1210.46 209.631 1202.21 203.786 1193.61 198.228C1180.45 189.722 1168.16 177.357 1103.7 171.882C1078.58 169.749 1046.85 170.822 1028.79 170.958C1006.47 171.126 999.727 169.757 988.853 169.927C966.37 170.279 934.128 177.181 898.61 183.589C865.689 189.528 847.939 193.27 843.43 194.573C833.056 197.571 820.917 200.425 803.486 209.155C774.729 223.556 747.295 239.884 731.883 249.768C716.529 259.616 679.418 294.267 658.319 311.884C637.475 329.289 611.016 353.172 590.71 362.978C570.234 372.867 541.591 388.759 513.386 392.508C485.158 396.261 448.718 398.835 419.59 393.016C395.137 388.132 379.212 380.305 357.041 372.831C336.18 365.799 325.356 352.217 300.684 341.746C284.932 335.061 258.082 333.996 235.974 334.875C207.51 336.006 195.629 338.565 183.403 344.573Z" fill="#5B38FF"/>
</g>
<g style="mix-blend-mode:plus-darker" filter="url(#filter4_f_1429_2110)">
<path d="M1195.95 94.1569C1219.27 101.959 1232.93 106.369 1234.76 106.53C1237.5 107.456 1240.38 113.033 1241.56 114.178C1245.77 119.555 1249.18 125.638 1252.48 131.728C1255.52 142.995 1264.79 181.426 1268.19 216.057C1269.56 230.001 1271.72 253.61 1274.68 277.131C1277.64 300.652 1281.29 323.397 1283.11 337.363C1284.94 351.329 1284.94 356.364 1284.93 381.283C1284.93 406.202 1284.92 449.687 1283.86 481.792C1282.8 513.897 1280.74 534.013 1278.62 548.4C1276.49 562.787 1274.37 571.19 1266.06 589.314C1257.75 607.438 1244.38 635.057 1234.88 649.848C1222.68 668.861 1217.85 675.868 1211.7 684.563C1206.62 691.756 1192.7 702.773 1182.3 711.907C1175.62 717.774 1169.93 725.545 1141.61 726.557C1115.27 727.498 1066.01 727.607 1039.5 728.044C1013 728.481 1009.37 729.391 1005.69 729.625C998.423 730.088 981.71 727.206 949.114 711.914C928.382 702.187 900.174 687.097 879.454 676.973C846.276 660.762 825.877 656.76 819.455 649.839C815.122 645.169 801.997 624.977 781.062 601.572C769.332 588.459 754.87 568.24 734.469 549.321C726.022 541.489 721.062 539.319 710.111 529.664C688.507 510.616 670.27 496.114 661.572 490.892C648.734 483.184 640.252 476.571 631.667 472.561C615.457 464.989 606.8 461.768 593.867 457.784C585.792 455.296 575.385 455.08 570.711 448.747C568.65 445.954 567.005 442.258 568.052 438.98C569.081 435.758 570.57 432.272 572.982 429.52C578.54 423.176 586.245 418.189 596.055 411.022C608.598 401.859 617.523 394.615 623.887 390.53C631.416 385.697 643.238 380.597 667.987 351.604C679.949 337.591 695.592 321.869 712.531 309.836C723.738 301.876 734.55 291.178 743.442 284.241C750.12 279.031 767.308 251.049 780.112 235.143C786.325 227.424 794.069 222.351 807.465 213.285C818.824 205.597 824.301 197.685 846.339 173.403C856.303 162.425 869.031 159.023 878.891 155.264C887.217 152.089 902.833 137.471 935.391 123.289C956.309 114.178 969.125 109.072 972.376 108.708C979.957 107.86 999.732 108.175 1028.26 100.613L1031.51 99.7497C1063.53 91.2588 1086.34 85.2132 1092.25 84.1439C1097.51 83.1925 1117.49 81.6431 1150.85 85.3663C1167.34 87.2068 1183.02 89.8332 1195.95 94.1569Z" fill="#EB0083"/>
</g>
<g style="mix-blend-mode:plus-darker" filter="url(#filter5_f_1429_2110)">
<path d="M453.53 446.889C459.929 447.948 486.055 448.423 497.484 448.262C498.465 448.351 499.495 448.216 500.673 448.262C503.212 448.314 506.433 448.902 508.957 451.223C509.059 452.969 510.995 458.117 508.13 461.175C506.906 462.481 501.281 462.366 493.504 463.695C485.348 465.089 480.298 464.675 456.227 466.395C448.722 466.931 440.036 466.726 423.927 470.35C413.843 472.619 400.146 476.229 389.966 480.266C372.742 487.096 364.881 492.255 361.428 493.323C352.611 496.05 340.642 496.802 324.033 507.076C312.379 514.285 290.783 527.04 280.258 534.728L279.884 535.001C266.777 544.575 261.557 548.388 250.917 552.897L248.723 553.827C232.001 560.912 219.355 566.271 215.675 567.979C212.91 569.262 210.561 570.026 199.386 570.097L198.067 570.105C187.888 570.17 170.841 570.278 161.518 570.08C150.5 569.846 147.816 569.083 145.384 567.448C138.021 562.498 127.768 558.072 121.567 552.055C115.167 545.846 108.189 538.456 106.329 534.054C103.548 527.475 101.607 521.483 101.26 515.623C100.708 506.296 97.7766 503.392 96.0792 496.845C94.4331 490.496 93.2318 475.177 94.5854 452.385C95.2735 440.798 95.6573 429.044 97.6603 421.312C102.382 403.084 105.796 396.899 107.274 392.498C109.532 385.772 112.925 375.693 121.746 365.701C128.888 357.612 135.598 349.46 141.803 345.963C149.4 341.683 154.402 341.963 158.569 340.787C162.261 339.746 171.409 334.713 186.364 336.255C192.882 336.927 206.036 336.547 222.273 338.067C231.916 338.97 237.574 340.066 244.172 343.106C254.831 348.016 262.738 351.064 265.367 352.28C275.171 356.816 291.088 364.069 295.754 368.097C305.171 376.224 311.038 382.634 322.411 389.711C330.649 394.838 343.795 405.544 359.06 415.78C367.283 421.294 371.641 422.479 373.865 424.359C377.912 427.781 381.764 428.321 388.687 431.235C403.438 437.446 411.777 441.317 420.343 442.382C430.805 443.683 446.455 445.717 453.53 446.889Z" fill="#EB0083"/>
</g>
<g style="mix-blend-mode:hard-light" filter="url(#filter6_f_1429_2110)">
<path d="M713.248 395.682C671.827 410.903 656.493 413.401 653.539 413.54C655.298 413.844 658.275 414.516 659.693 415.359C662.534 417.042 667.155 418.693 673.405 418.813C679.599 417.114 685.979 416.373 692.51 415.282C700.298 413.982 706.744 412.179 723.671 412.097C756.796 411.936 779.782 412.343 783.128 412.58C794.233 413.365 810.249 413.604 824.35 414.567C829.18 414.897 842.851 417.841 887.537 418.274C920.557 418.593 973.367 417.967 1003.14 417.362C1039.46 416.624 1053.41 416.148 1074 411.66C1117.53 402.17 1133.73 403.504 1146.29 397.813C1171.42 386.427 1195.66 374.177 1196.05 363.801C1196.3 357.065 1195.99 345.356 1194.51 331.384C1192.52 312.665 1194.16 303.689 1184.82 282.128C1177.56 265.369 1167.22 246.798 1151.17 230.583C1140.53 219.832 1118.59 200.303 1101.61 198.625C1083.61 196.847 1060.07 198.156 1052.38 202.571C1045.46 206.54 1033.17 206.866 1018.7 207.065C1004.13 207.265 980.923 210.751 959.843 219.896C948.397 224.861 935.836 233.907 918.54 248.174C910.145 255.099 902.603 261.556 874.337 283.091C846.071 304.625 798.523 340.159 768.305 361.556C738.086 382.952 725.991 390.999 713.248 395.682Z" fill="#F0A5CE"/>
</g>
<g style="mix-blend-mode:plus-darker" filter="url(#filter7_f_1429_2110)">
<path d="M1191.85 629.364C1197.54 625.717 1198.96 625.139 1199.12 625.139C1200.5 623.483 1203.62 622.536 1203.99 621.714C1204.56 620.028 1204.96 618.195 1205.34 616.4C1206.42 613.247 1209.19 609.965 1208.48 606.605C1208.12 604.885 1207.8 602.948 1206.45 601.613C1203.03 598.232 1194.86 591.888 1184.93 591.733C1174.2 591.566 1162.74 592.282 1154.98 592.925C1150.59 593.29 1148.46 593.845 1144.05 594.633C1140.47 595.274 1134.29 596.215 1109.43 597.109C1084.57 598.004 1042.32 598.828 1018.26 599.219C994.199 599.61 988.512 599.571 980.571 598.11C972.629 596.649 962.735 593.852 956.372 592.175C950.01 590.498 947.263 589.958 935.173 589.197C923.084 588.436 902.282 587.484 891.43 587.055C880.579 586.626 879.704 586.718 878.854 586.957C878.004 587.196 876.78 587.663 877.092 588.08C878.973 590.592 884.277 593.431 887.903 596.73C891.473 599.978 895.754 603.08 903.6 607.399C911.98 612.013 918.414 615.577 922.439 617.131C926.587 618.733 929.818 621.546 933.566 624.2C937.642 627.087 942.384 630.643 955.764 638.299C961.955 641.842 970.877 647.217 978.996 650.301C993.532 655.821 1000.94 657.792 1002.73 658.084C1007.07 658.789 1013.68 660.639 1027.47 660.714C1047.24 660.82 1060.48 660.606 1062.18 660.549C1064.04 660.487 1073.03 658.001 1091.45 655.899C1101.86 654.709 1114.42 654.023 1126.48 653.009C1138.53 651.995 1149.75 650.692 1156.08 649.829C1162.41 648.966 1163.85 648.648 1165.76 647.592C1170.15 645.159 1179.63 637.206 1191.85 629.364Z" fill="#EB0083"/>
</g>
<defs>
<filter id="filter0_f_1429_2110" x="0.744141" y="69.9126" width="1423.58" height="672.809" filterUnits="userSpaceOnUse" color-interpolation-filters="sRGB">
<feFlood flood-opacity="0" result="BackgroundImageFix"/>
<feBlend mode="normal" in="SourceGraphic" in2="BackgroundImageFix" result="shape"/>
<feGaussianBlur stdDeviation="50" result="effect1_foregroundBlur_1429_2110"/>
</filter>
<filter id="filter1_f_1429_2110" x="43.618" y="82.2747" width="1320.61" height="660.896" filterUnits="userSpaceOnUse" color-interpolation-filters="sRGB">
<feFlood flood-opacity="0" result="BackgroundImageFix"/>
<feBlend mode="normal" in="SourceGraphic" in2="BackgroundImageFix" result="shape"/>
<feGaussianBlur stdDeviation="47.4185" result="effect1_foregroundBlur_1429_2110"/>
</filter>
<filter id="filter2_f_1429_2110" x="82.926" y="152.13" width="1259.18" height="508.374" filterUnits="userSpaceOnUse" color-interpolation-filters="sRGB">
<feFlood flood-opacity="0" result="BackgroundImageFix"/>
<feBlend mode="normal" in="SourceGraphic" in2="BackgroundImageFix" result="shape"/>
<feGaussianBlur stdDeviation="29.6366" result="effect1_foregroundBlur_1429_2110"/>
</filter>
<filter id="filter3_f_1429_2110" x="41.471" y="110.639" width="1342.12" height="591.355" filterUnits="userSpaceOnUse" color-interpolation-filters="sRGB">
<feFlood flood-opacity="0" result="BackgroundImageFix"/>
<feBlend mode="normal" in="SourceGraphic" in2="BackgroundImageFix" result="shape"/>
<feGaussianBlur stdDeviation="29.6366" result="effect1_foregroundBlur_1429_2110"/>
</filter>
<filter id="filter4_f_1429_2110" x="484.745" y="0.01754" width="883.17" height="812.635" filterUnits="userSpaceOnUse" color-interpolation-filters="sRGB">
<feFlood flood-opacity="0" result="BackgroundImageFix"/>
<feBlend mode="normal" in="SourceGraphic" in2="BackgroundImageFix" result="shape"/>
<feGaussianBlur stdDeviation="41.4912" result="effect1_foregroundBlur_1429_2110"/>
</filter>
<filter id="filter5_f_1429_2110" x="32.3559" y="274.32" width="538.979" height="357.518" filterUnits="userSpaceOnUse" color-interpolation-filters="sRGB">
<feFlood flood-opacity="0" result="BackgroundImageFix"/>
<feBlend mode="normal" in="SourceGraphic" in2="BackgroundImageFix" result="shape"/>
<feGaussianBlur stdDeviation="30.8221" result="effect1_foregroundBlur_1429_2110"/>
</filter>
<filter id="filter6_f_1429_2110" x="539.735" y="84.0529" width="770.197" height="448.564" filterUnits="userSpaceOnUse" color-interpolation-filters="sRGB">
<feFlood flood-opacity="0" result="BackgroundImageFix"/>
<feBlend mode="normal" in="SourceGraphic" in2="BackgroundImageFix" result="shape"/>
<feGaussianBlur stdDeviation="56.9023" result="effect1_foregroundBlur_1429_2110"/>
</filter>
<filter id="filter7_f_1429_2110" x="791.689" y="501.402" width="502.258" height="244.695" filterUnits="userSpaceOnUse" color-interpolation-filters="sRGB">
<feFlood flood-opacity="0" result="BackgroundImageFix"/>
<feBlend mode="normal" in="SourceGraphic" in2="BackgroundImageFix" result="shape"/>
<feGaussianBlur stdDeviation="42.6767" result="effect1_foregroundBlur_1429_2110"/>
</filter>
</defs>
</svg>
