<svg width="2487" height="885" viewBox="0 0 2487 885" fill="none" xmlns="http://www.w3.org/2000/svg">
<g filter="url(#filter0_f_1421_2078)">
<path d="M278.118 639.782C229.951 608.439 221.604 597.233 220.162 592.061C217.156 578.044 226.026 571.793 222.964 560.707C214.831 531.264 188.513 457.343 233.36 438.993C250.682 431.906 327.146 431.368 374.547 428.662C413.282 426.452 492.176 418.843 522.407 405.406C569.933 384.28 615.931 359.007 654.597 327.439C699.872 290.476 744.761 250.605 805.193 231.694C840.75 220.566 862.344 211.69 947.067 218.919C983.879 222.06 1033.09 236.976 1089.37 248.286C1126.63 255.774 1141 257.769 1247.9 286.428C1304.94 301.72 1357.17 323.636 1417.29 331.509C1517.68 344.654 1657.02 314.636 1738.74 263.649C1794.56 228.814 2027.68 136.029 2056.26 239.408C2065.95 274.468 2071.49 310.722 2079.97 346.077C2086.93 375.082 2094.4 604.661 2042.06 586.04C2029.83 581.686 1993.2 565.242 1901.98 577.493L1897.62 578.078C1829.89 587.173 1785.38 593.15 1772.69 597.15C1759.41 601.333 1739.68 617.223 1706.79 629.58C1630.71 658.164 1556.06 662.554 1473.37 660.857C1398.92 659.329 1351.95 655.527 1333.66 647.11C1177.91 575.431 968.146 481.777 787.967 560.885C757.187 574.398 726.349 586.745 704.437 595.905C652.801 617.492 608.971 652.76 549.304 659.989C472.167 669.334 344.957 683.277 278.118 639.782Z" fill="#3FCD7D"/>
</g>
<g style="mix-blend-mode:plus-lighter" filter="url(#filter1_f_1421_2078)">
<path d="M410.459 639.9C457.316 640.637 506.022 635.144 544.65 630.464C568.125 627.62 589.548 619.17 613.054 607.432C634.542 596.702 662.756 580.309 689.803 569.002C712.434 559.541 742.326 547.588 772.741 534.234C873.067 490.187 979.967 495.136 1078.89 518.689C1177.43 542.153 1271.93 585.039 1349.46 620.72C1352.25 622.003 1362.6 624.724 1386.08 626.931C1408 628.992 1437.25 630.301 1474.16 631.059C1555.11 632.72 1623.98 628.263 1693.4 602.184C1707.25 596.979 1718.55 590.962 1728.69 585.238C1733.39 582.585 1739.01 579.323 1743.66 576.826C1748.3 574.333 1754.46 571.222 1761.18 569.101C1771.03 565.999 1788.79 563.101 1808.86 560.134C1830.35 556.957 1858.71 553.149 1892.48 548.615L1896.83 548.03C1945.39 541.509 1980.96 542.423 2007.06 546.114C2019.97 547.941 2030.32 550.44 2038.19 552.751C2038.27 552.507 2038.36 552.258 2038.45 552.003C2043.83 536.108 2047.43 511.11 2049.31 482.227C2051.14 453.923 2051.2 423.971 2050.36 399.315C2049.48 373.578 2047.71 356.443 2046.7 352.212C2042.32 333.972 2038.69 315.445 2035.1 297.895C2031.46 280.091 2027.8 263.02 2023.22 246.429C2021.1 238.79 2017.61 234.385 2013.93 231.473C2010.01 228.374 2004.06 225.561 1994.95 223.758C1975.79 219.966 1948.3 221.743 1915.73 228.665C1850.99 242.425 1782.74 272.775 1758.45 287.931C1713.2 316.166 1653.66 337.717 1593.02 350.596C1532.4 363.475 1467.91 368.273 1412.27 360.988C1379.15 356.651 1348.76 348.517 1320.35 339.928C1290.89 331.023 1265.84 322.407 1237.96 314.932C1131.92 286.504 1118.34 284.688 1081.77 277.338C1052.91 271.539 1025.41 264.716 1002.25 259.359C978.204 253.8 959.126 249.894 943.774 248.584C902.825 245.09 879.338 245.7 862.773 247.894C846.295 250.077 835.443 253.876 816.624 259.765C764.305 276.138 725.058 310.644 677.77 349.251C635.994 383.358 587.013 410.107 537.783 431.99C517.223 441.129 484.836 446.892 456.883 450.697C427.362 454.715 396.932 457.254 376.756 458.405C353.833 459.714 319.48 460.7 294.608 461.942C281.209 462.611 269.391 463.387 260.118 464.363C249.963 465.432 246.866 466.391 247.535 466.09C246.646 466.468 245.356 467.203 243.994 470.86C242.22 475.626 241.36 483.147 242.208 493.569C243.935 514.784 251.39 536.97 256.009 553.692C259.879 567.704 255.604 579.205 254.392 583.111C254.326 583.322 254.268 583.52 254.212 583.705C254.681 584.145 255.215 584.635 255.824 585.176C262.323 590.952 274.854 600.539 298.383 615.85C322.983 631.858 362.479 639.146 410.459 639.9Z" fill="#00C3D9"/>
</g>
<g style="mix-blend-mode:plus-lighter" filter="url(#filter2_f_1421_2078)">
<path d="M302.891 473.411C282.043 470.814 271.478 469.139 267.43 468.614C265.567 469.439 265.948 469.229 264.657 470.12C263.366 471.011 262.239 472.038 260.943 472.774C255.227 474.959 249.325 477.337 245.765 481.644C242.348 485.778 234.814 496.709 234.662 506.284C234.447 519.907 237.866 543.914 245.56 549.796C261.826 562.23 278.979 574.007 288.873 575.496C295.662 576.517 304.61 578.695 338.073 574.37C365.5 570.825 417.144 564.141 443.61 560.138C471.532 555.915 475.107 555.159 494.491 547.14C512.09 539.859 544.361 526.204 561.273 519.02C578.185 511.836 579.715 511.186 583.771 509.78C603.956 502.781 621.274 490.282 631.932 485.059C637.67 482.246 643.42 476.612 650.565 471.964C656.615 468.028 663.236 464.904 667.368 459.549C673.858 451.139 680.287 447.3 684.675 441.627C690.251 434.418 695.528 422.377 704.853 400.278C709.654 388.9 716.39 376.411 713.321 367.97C712.28 365.107 710.876 360.375 707.042 361.298C694.61 364.291 679.701 371.338 672.891 375.102C659.602 382.447 651.821 385.471 620.207 398.447C607.411 403.699 590.966 410.778 575.812 415.27C560.658 419.763 546.846 420.675 539.767 422.949C526.869 427.093 510.464 434.619 475.571 446.03C466.852 448.882 443.31 452.165 411.498 456.724C398.711 458.556 389.313 462.63 366.522 465.99C331.538 471.147 309.173 474.194 302.891 473.411Z" fill="#C0F9FF"/>
</g>
<g style="mix-blend-mode:plus-lighter" opacity="0.7" filter="url(#filter3_f_1421_2078)">
<path d="M1322.47 335.68C1465.83 380.689 1630.49 331.352 1694.89 301.058C1732.6 276.534 1780.99 250.523 1672.87 342.671C1564.75 434.819 1388.55 396.823 1313.96 366.307C1257.07 337.344 1179.11 290.671 1322.47 335.68Z" fill="#F5F9FA"/>
</g>
<g style="mix-blend-mode:plus-darker" filter="url(#filter4_f_1421_2078)">
<path d="M2210.42 496.579C2232.77 470.761 2245.09 456.058 2245.71 455.502C2249.76 447.201 2253.11 449.563 2254.74 447.554C2257.84 443.416 2261.67 436.589 2267 427.542C2273.9 419.11 2285.26 412.707 2290.74 402.054C2293.15 397.377 2299.03 373.978 2290.64 349.728C2280.3 319.841 2273.87 304.212 2264.57 293.437C2253.19 280.264 2211.42 251.093 2177.42 230.319C2153.51 215.713 2135.95 204.627 2131.7 205.996C2129.75 206.625 2128.11 209.383 2126.66 208.375C2123.14 205.915 2119.66 200.204 2114.76 197.971C2104.59 193.336 2068.72 188.02 2046.29 196.44C2033.09 201.395 2007.46 203.044 1979.32 213.831C1944.03 227.361 1924.42 226.093 1911.41 235.629C1893.56 248.707 1874.72 263.946 1826.51 291.791C1805.99 303.647 1793.88 311.827 1781.77 317.268C1738.77 336.596 1707.26 345.507 1688.17 352.776C1677.96 356.663 1656.99 382.405 1637.19 389.08C1627.15 392.462 1606.65 404.916 1561.13 406.114C1538.2 406.717 1500.96 405.845 1472.11 402.448C1443.26 399.052 1423.44 393.073 1411.6 390.088C1396.17 386.198 1371.39 386.143 1323.26 380.47C1295.44 377.191 1261.27 371.677 1237.34 366.986C1213.42 362.296 1199.9 359.284 1184.46 351.918C1151.23 336.072 1130.77 325.151 1123.43 323.429C1098.14 317.501 1061.79 304.13 1043.82 302.087C1026.81 300.155 1005.17 284.977 937.589 296.946C913.416 301.228 875.542 315.22 885.69 316.217C897.622 317.389 911.457 315.967 937.11 320.069C949.449 322.043 985.779 336.125 1034.95 360.384C1064.99 375.202 1090.2 392.442 1111.88 413.56C1129.22 430.453 1144.96 441.94 1171.99 455.248C1191.99 465.094 1224.16 483.512 1264.15 511.828C1284.14 525.984 1302.87 541.166 1314.33 547.783C1328.37 555.889 1351.89 571.442 1391.47 591.585C1409.73 600.875 1424.98 607.517 1440.92 611.161C1490.5 622.493 1498.67 627.676 1516.18 633.395C1550.71 644.667 1569.22 648.092 1578.55 651.04C1587.84 653.973 1603.43 657.755 1674.61 657.485C1718.79 657.317 1794.05 655.638 1832.89 654.601C1871.73 653.563 1874.09 653.211 1878.19 652.37C1887.99 650.36 1904.59 649.675 1946.47 634.047C1978.77 621.995 2031.58 599.705 2061.5 587.988C2097.83 573.756 2108.61 570.513 2125.49 560.044C2160.96 538.057 2192.63 517.126 2210.42 496.579Z" fill="#3FCD7D"/>
</g>
<g filter="url(#filter5_f_1421_2078)">
<path d="M955.995 352.618C980.821 342.646 1009.19 336.146 1012.85 336.146C1014.7 333.777 1019.43 330.654 1020.56 329.115C1022.94 326.039 1023.86 315.547 1022.04 305.19C1017.78 297.541 1014.89 288.783 1003.7 282.377L1002.8 281.863C989.268 274.114 980.856 269.297 971.72 267.993C951.836 265.154 900.639 259.074 883.227 266.725C872.58 271.402 841.615 282.138 806.945 297.889C787.812 306.581 765.075 324.959 740.124 338.116C722.833 347.235 714.167 355.893 681.518 372.124C662.778 381.44 631.482 396.991 613.179 404.309C581.721 416.888 555.067 431.115 531.5 432.967C522.118 433.704 497.354 437.466 448.089 440.174C418.544 441.798 380.241 442.674 358.977 443.35C337.713 444.026 333.575 444.328 329.54 445.287C321.538 447.189 293.281 460.376 255.062 473.512C236.431 479.915 226.141 482.162 216.755 486.352C202.707 492.623 170.52 506.008 164.973 518.576C163.381 522.184 159.622 527.616 160.031 536.872C161.461 569.223 164.255 598.44 169.922 606.435C184.518 627.024 204.447 660.972 222.081 671.258C263.281 695.287 288.67 703.016 296.509 705.717C305.503 708.816 338.425 724.226 377.759 724.699C395.19 724.908 425.017 725.376 443.728 724.428C469.889 723.102 498.016 717.153 526.701 708.732C555.73 700.209 574.196 698.013 583.41 694.273C599.928 687.569 612.167 680.25 650.247 654.435C665.284 644.242 684.71 631.759 696.737 623.575C708.763 615.39 713.253 611.617 733.875 589.282C754.497 566.946 790.444 527.471 808.639 506.395C828.334 483.581 833.577 479.258 848.548 462.492C868.612 440.023 892.031 414.625 906.485 399.12C937.367 365.992 942.665 357.972 955.995 352.618Z" fill="#3FCD7D"/>
</g>
<defs>
<filter id="filter0_f_1421_2078" x="107.878" y="92.0005" width="2077" height="677.771" filterUnits="userSpaceOnUse" color-interpolation-filters="sRGB">
<feFlood flood-opacity="0" result="BackgroundImageFix"/>
<feBlend mode="normal" in="SourceGraphic" in2="BackgroundImageFix" result="shape"/>
<feGaussianBlur stdDeviation="50" result="effect1_foregroundBlur_1421_2078"/>
</filter>
<filter id="filter1_f_1421_2078" x="129.879" y="109.804" width="2033" height="642.163" filterUnits="userSpaceOnUse" color-interpolation-filters="sRGB">
<feFlood flood-opacity="0" result="BackgroundImageFix"/>
<feBlend mode="normal" in="SourceGraphic" in2="BackgroundImageFix" result="shape"/>
<feGaussianBlur stdDeviation="56" result="effect1_foregroundBlur_1421_2078"/>
</filter>
<filter id="filter2_f_1421_2078" x="94.6523" y="221.18" width="759.441" height="495.776" filterUnits="userSpaceOnUse" color-interpolation-filters="sRGB">
<feFlood flood-opacity="0" result="BackgroundImageFix"/>
<feBlend mode="normal" in="SourceGraphic" in2="BackgroundImageFix" result="shape"/>
<feGaussianBlur stdDeviation="70" result="effect1_foregroundBlur_1421_2078"/>
</filter>
<filter id="filter3_f_1421_2078" x="1185" y="221.912" width="610" height="234.73" filterUnits="userSpaceOnUse" color-interpolation-filters="sRGB">
<feFlood flood-opacity="0" result="BackgroundImageFix"/>
<feBlend mode="normal" in="SourceGraphic" in2="BackgroundImageFix" result="shape"/>
<feGaussianBlur stdDeviation="28" result="effect1_foregroundBlur_1421_2078"/>
</filter>
<filter id="filter4_f_1421_2078" x="692" y="0" width="1795" height="849.499" filterUnits="userSpaceOnUse" color-interpolation-filters="sRGB">
<feFlood flood-opacity="0" result="BackgroundImageFix"/>
<feBlend mode="normal" in="SourceGraphic" in2="BackgroundImageFix" result="shape"/>
<feGaussianBlur stdDeviation="96" result="effect1_foregroundBlur_1421_2078"/>
</filter>
<filter id="filter5_f_1421_2078" x="0" y="103.009" width="1183" height="781.992" filterUnits="userSpaceOnUse" color-interpolation-filters="sRGB">
<feFlood flood-opacity="0" result="BackgroundImageFix"/>
<feBlend mode="normal" in="SourceGraphic" in2="BackgroundImageFix" result="shape"/>
<feGaussianBlur stdDeviation="80" result="effect1_foregroundBlur_1421_2078"/>
</filter>
</defs>
</svg>
