<svg width="1131" height="1080" viewBox="0 0 1131 1080" fill="none" xmlns="http://www.w3.org/2000/svg">
<g opacity="0.8" filter="url(#filter0_f_1429_2119)">
<path d="M935.941 108C949.822 107.989 963.949 111.042 976.393 114.44C981.727 115.896 986.271 120.249 990.081 125.741C993.952 131.322 997.412 138.582 1000.4 146.718C1006.39 163.005 1010.7 183.343 1012.56 202.163C1013.47 211.34 1012.64 225.689 1011.55 243.084C1010.44 260.627 1009.03 281.58 1008.66 304.37C1008.41 320.321 1003.86 333.204 998.936 345.341C993.97 357.578 988.753 368.802 986.42 382.182C984.518 393.097 978.678 403.873 969.422 422.259C955.195 450.516 942.045 478.83 927.703 496.817C903.117 527.65 880.768 543.753 853.118 561.266C817.489 583.831 804.501 584.099 754.022 598.825C714.514 610.35 687.267 635.91 667.668 649.935C656.46 657.956 649.315 667.904 642.881 676.897L642.625 677.255C638.582 682.906 635.263 693.599 632.849 708.704C630.462 723.639 629.035 742.342 628.42 763.533C627.586 792.316 618.892 818.72 610.203 844.834C604.61 861.642 598.432 870.005 590.847 874.293C584.504 877.88 576.427 878.947 568.264 879.914C559.866 880.908 550.947 881.819 541.83 884.705C497.406 898.767 462.085 917.414 440.607 926.444C438.372 927.384 436.046 927.712 431.437 927.918C426.805 928.124 419.37 928.212 406.662 928.426C381.128 928.857 333.896 929.218 307.836 929.007C293.058 928.887 277.808 928.367 260.844 927.799C243.87 927.23 225.151 926.613 203.372 926.295L203.134 926.29L202.897 926.255C187.304 923.892 173.564 920.529 162.573 916.768C151.688 913.043 143.167 908.818 138.297 904.566L138.126 904.416L137.975 904.245C137.975 904.245 137.967 904.236 137.944 904.214C137.922 904.192 137.891 904.162 137.848 904.124C137.762 904.046 137.644 903.949 137.489 903.829C137.175 903.586 136.772 903.301 136.269 902.961C135.443 902.404 133.833 901.366 132.637 900.549C130.025 898.763 126.714 896.284 124.716 893.132L124.193 892.306L124.171 891.328C123.922 879.561 118.702 831.816 111.424 785.301C105.295 746.127 108.897 722.33 110.746 710.164L110.776 709.969C113.329 693.17 119.09 678.495 132.648 654.182C143.442 634.824 163.928 602.318 182.391 577.262C214.496 533.692 236.553 516.62 246.646 509.331C265.84 495.468 290.684 484.269 324.874 474.503C347.636 468.001 382.192 462.788 404.296 459.465C447.818 452.922 465.21 449.412 482.085 443.092C491.552 439.547 504.23 437.26 518.107 435.621C532.035 433.977 547.428 432.96 562.417 432.047C569.258 431.631 576.309 429.032 584.431 424.356C592.57 419.669 601.545 413.04 612.25 404.788C631.603 389.87 639.907 373.017 646.395 362.796C649.402 358.057 655.534 347.755 664.21 333.355C672.864 318.994 683.998 300.641 696.952 279.909C704.775 267.388 709.44 255.99 712.906 246.339C713.774 243.921 714.565 241.614 715.317 239.415C716.066 237.225 716.781 235.126 717.48 233.165C718.868 229.273 720.263 225.722 721.917 222.78C727.403 213.021 731.582 204.3 741.257 192.809C750.897 181.358 765.942 167.194 793.237 145.988C799.868 140.837 805.249 137.422 811.385 134.637C817.466 131.876 824.182 129.783 833.364 127.179C880.801 113.725 919.994 108.013 935.941 108Z" fill="#0005FB"/>
</g>
<g style="mix-blend-mode:plus-lighter" filter="url(#filter1_f_1429_2119)">
<path d="M878.936 126.398C894.464 121.285 914.327 121.384 926.892 124.324C932.617 125.664 936.312 129.302 938.136 131.357C940.184 133.663 941.859 136.28 943.177 138.533C945.754 142.937 948.626 148.915 951.288 154.195C958.039 167.59 960.577 185.698 962.018 209.223C963.011 225.426 962.848 238.965 961.958 249.634C961.108 259.813 959.496 268.763 956.787 274.894C955.355 278.134 952.994 282.607 950.888 286.822C948.583 291.438 945.86 297.119 942.895 304.272C939.861 311.591 936.51 320.418 933.15 329.353C929.838 338.16 926.493 347.137 923.609 354.327C914.796 376.305 908.007 385.617 903.865 390.826C901.573 393.709 896.191 402.148 887.964 419.226C883.821 427.828 880.549 434.998 877.751 441.163C874.993 447.238 872.57 452.621 870.28 457.254C865.516 466.891 860.767 474.465 852.683 481.856C824.154 507.937 803.973 510.866 786.271 519.064C779.068 522.401 768.689 528.015 757.324 534.259C746.232 540.354 734.314 546.985 724.77 551.866C711.431 558.688 700.866 563.518 692.319 567.309C683.519 571.213 677.703 573.661 672.781 576.14C659.412 582.872 634.368 597.97 618.431 611.234C610.946 617.464 604.564 628.934 595.31 651.571C589.905 664.792 584.295 686.245 581.074 707.439C577.938 728.078 578.027 747.874 578.333 760C578.688 774.128 579.578 784.102 578.957 792.478C578.433 799.546 575.592 805.594 572.823 810.231C570.046 814.88 566.553 819.365 563.593 823.138C556.985 831.561 552.381 837.501 550.393 843.62C545.656 858.207 538.175 868.451 524.045 880.493C517.887 885.74 510.006 889.047 495.379 894.854C479.665 901.093 453.526 910.557 439.297 915.524C420.947 921.929 407.183 921.812 391.969 922.096C383.338 922.258 371.224 922.333 339.081 918.242C316.64 915.386 282.056 909.738 262.713 906.326C237.86 901.942 228.315 896.229 218.087 891.219C214.845 889.632 208.797 887.869 199.346 885.918C192.476 884.499 184.72 883.15 176.158 881.671L167.33 880.143C161.691 879.158 156.123 878.337 152.43 877.569C148.388 876.728 143.369 875.396 138.693 871.939C127.103 863.373 122.402 851.226 120.715 845.425C120.297 845.16 119.858 844.877 119.435 844.582C118.815 844.151 117.91 843.489 116.97 842.629C116.192 841.917 114.455 840.242 113.111 837.643L111.232 834.011L111.353 829.923C111.655 819.748 114.572 792.551 129.642 759.615C140.836 735.149 165.042 698.301 183.608 669.779C202.772 640.338 218.235 619.339 227.22 607.381C238.128 592.861 243.392 586.79 249.738 579.153C254.718 573.161 262.381 566.801 270.62 560.617C279.123 554.235 289.324 547.252 300.147 540.041C313.764 530.967 322.745 527.747 330.22 524.677C339.218 520.982 358.183 511.89 391.316 499.554C412.368 491.715 443.869 484.475 461.252 479.427C474.761 475.504 484.543 472.31 492.311 469.803C499.826 467.377 506.267 465.314 512.151 464.139C523.843 461.805 534.398 459.333 542.519 456.558C544.867 455.756 549.852 453.172 558.352 447.961C566.447 442.998 576.485 436.447 588.494 428.607L589.39 428.022C598.717 421.934 605.842 417.437 611.884 413.382C617.905 409.342 621.674 406.505 624.105 404.178C626.225 402.148 627.899 400.037 630.772 396.051C633.627 392.091 637.467 386.566 643.378 379.011C653.693 365.827 672.244 343.791 691.139 316.742C709.998 289.745 728.671 258.783 739.178 240.835C749.393 223.386 751.748 218.327 760.392 207.118C768.569 196.515 782.855 179.731 792.791 168.865C803.942 156.67 813.131 148.934 821.424 143.956C830.074 138.764 837.041 137.009 842.586 135.87C851.587 134.02 860.384 132.506 878.936 126.398Z" fill="#00C3D9"/>
</g>
<g style="mix-blend-mode:plus-darker" filter="url(#filter2_f_1429_2119)">
<path d="M632.04 461.861C624.694 467.179 624.633 467.313 624.573 467.446C623.007 469.774 622.262 471.794 621.583 473.217C620.36 476.228 619.836 485.331 621.232 495.936C625.694 517.433 628.93 530.101 635.242 534.143C642.892 539.042 654.808 543.03 662.431 545.003C668.791 546.648 678.66 552.975 696.294 551.136C709.487 549.76 722.583 547.059 732.315 545.133C744.101 542.8 757.368 543.715 782.122 531.826C789.392 528.335 804.037 514.638 823.189 496.03C830.766 488.667 833.908 485.71 838.974 479.714C852.116 464.158 858.622 458.869 862.714 454.369C867.118 449.524 870.475 445.82 873.749 440.338C877.472 434.104 881.296 429.651 884.618 426.2C887.859 422.833 890.97 418.457 895.333 413.322C898.045 410.129 909.953 394.827 924.111 370.061C930.051 359.67 932.661 352.886 936.53 340.01C940.399 327.135 945.377 308.726 948.198 296.791C951.02 284.856 951.423 279.509 952.161 276.302C953.887 268.797 956.467 262.681 957.426 254.598C958.956 241.696 964.36 223.023 960.975 213.368C957.332 202.976 949.201 189.25 944.056 187.791C941.746 187.136 924.884 184.892 900.159 189.427C878.248 193.446 872.122 191.653 854.592 202.306C846.353 207.313 838.687 212.543 827.229 227.574C818.642 238.837 805.395 257.549 797.859 268.732C790.323 279.915 788.826 283.702 784.388 288.508C773.863 299.906 760.891 314.204 751.682 329.109C745.087 339.784 742.103 345.586 738.456 349.185C731.55 355.998 722.435 366.947 707.658 386.025C697.845 398.695 683.468 416.96 668.743 431.501C654.346 445.718 640.039 456.072 632.542 461.497L632.04 461.861Z" fill="#0005FB"/>
</g>
<g filter="url(#filter3_f_1429_2119)">
<path d="M597.262 533.325C604.637 531.334 604.665 531.334 604.694 531.334C607.646 531.309 611.495 531.462 613.351 531.774C616.195 532.635 618.387 534.326 620.556 537.427C620.868 539.861 620.745 542.354 619.948 546.045C617.451 557.62 615.365 563.557 612.787 577.308C611.381 584.811 608.213 596.134 601.431 603.647C596.944 608.618 597.231 613.678 589.55 639.314C583.804 658.492 580.352 670.798 579.247 674.397C578.498 676.837 577.349 681.189 577.053 691.799C576.551 709.778 576.522 722.325 574.259 727.037C570.208 735.47 566.291 743.231 564.645 761.796C563.242 777.628 561.276 805.761 560.105 820.363C558.934 834.966 558.633 836.042 558.112 836.923C557.119 838.604 546.997 845.697 534.371 857.799C528.395 863.526 526.973 867.101 524.874 869.896C521.297 874.658 515.182 881.228 497.808 887.259C488.759 890.4 473.982 895.156 462.665 899.392C451.347 903.629 443.721 907.235 438.521 909.212C433.321 911.19 430.63 911.529 410.514 910.417C390.398 909.305 353.953 906.942 334.957 905.449C314.423 903.836 310.292 902.411 301.433 900.403C285.776 896.854 274.541 894.405 267.607 891.045C253.221 884.074 243.183 879.654 238.194 877.983C227.226 874.308 217.4 871.652 214.816 868.607C210.25 863.227 201.654 852.963 200.871 837.006C200.127 821.858 197.704 807.56 195.509 798.491C194.279 793.406 193.269 784.218 195.387 768.888C196.51 760.766 198.575 752.089 201.92 742.938C205.266 733.787 209.755 724.447 213.729 713.749C217.703 703.051 220.431 691.121 223.323 684.14C230.165 667.626 236.758 658.147 240.242 653.237C246.247 644.775 254.151 629.51 264.234 624.927C273.25 620.83 281.222 616.187 286.031 614.513C289.404 613.339 297.619 607.583 313.383 596.965C322.128 591.075 332.485 584.511 346.051 577.635C359.618 570.76 375.856 563.671 384.449 560.199C393.785 556.426 395.538 555.549 397.52 555.115C399.188 554.749 408.976 555.437 426.651 554.158C435.644 553.507 444.639 552.167 459.147 551.379C473.654 550.591 493.085 550.362 510.873 549.103C528.661 547.844 544.33 545.621 559.748 542.459C575.048 539.321 589.661 535.377 597.091 533.371L597.262 533.325Z" fill="#0005FB"/>
</g>
<g opacity="0.5" filter="url(#filter4_f_1429_2119)">
<path d="M680.605 503.225C668.805 508.121 667.86 508.3 667.76 508.3C668.897 510.024 669.67 509.844 670.049 510.271C670.886 511.024 671.788 511.847 672.98 512.901C676.509 515.38 678.721 519.143 681.289 521.95C684.298 525.24 691.978 531.119 699.794 537.305C701.556 538.699 704.903 540.576 718.784 541.963C729.777 543.061 748.38 544.304 760.907 544.468C773.435 544.632 779.696 543.745 786.819 542.321C793.941 540.897 801.69 538.993 812.421 535.016C823.152 531.039 836.455 525.149 843.512 522.065C851.332 518.648 853.25 518.971 855.742 516.98C860.917 512.846 864.727 509.367 867.214 507.59C871.581 504.471 875.027 501.234 878.004 497.693C880.012 495.304 883.067 491.877 890.059 480.276C897.051 468.676 907.658 449.483 913.49 438.005C919.323 426.526 920.349 422.874 922.231 410.499C924.113 398.123 926.77 377.645 928.04 358.077C929.309 338.51 929.194 320.401 928.991 310.946C928.788 301.491 928.41 300.462 928.21 300.7C927.613 301.411 926.631 303.751 919.682 312.405C913.735 319.812 902.996 332.82 897.424 339.57L897.409 339.588C891.851 346.321 891.455 346.8 889.556 349.425C887.655 352.052 884.348 356.689 880.922 360.843C877.497 364.997 874.057 368.561 866.013 375.217C857.968 381.873 845.691 391.334 839.289 396.411C832.887 401.488 832.376 402.159 828.348 404.729C824.321 407.299 816.997 411.636 811.782 414.955C806.567 418.274 803.55 420.507 797.492 426.191C791.434 431.875 782.601 440.742 771.411 450.295C760.222 459.849 747.074 469.788 729.738 479.523C712.402 489.258 691.57 498.675 680.605 503.225Z" fill="#0005FB"/>
</g>
<g opacity="0.3" filter="url(#filter5_f_1429_2119)">
<ellipse cx="416.326" cy="770.266" rx="106.326" ry="76.8409" transform="rotate(-15.7442 416.326 770.266)" fill="#0003A5"/>
</g>
<g style="mix-blend-mode:plus-lighter" filter="url(#filter6_f_1429_2119)">
<path d="M802.143 243.391C795.388 252.435 791.077 260.138 790.922 260.705C791.065 258.489 791.256 257.221 791.389 255.88C791.595 253.166 791.856 250.013 792.5 247.204C792.964 246.035 795.623 238.684 798.641 226.45C799.988 220.986 800.655 216.864 802.523 211.961C804.391 207.058 807.37 201.541 812.47 194.254C817.569 186.967 824.577 178.177 829.207 172.651C833.836 167.124 836.021 164.927 841.424 160.93C846.826 156.934 855.194 151.308 859.821 148.376C864.447 145.445 865.304 145.191 867.732 144.752C874.025 143.616 882.874 142.361 890.758 143.038C895.232 143.422 899.173 144.179 903.309 146.1C906.631 147.644 910.425 149.597 914.225 152.952C917.99 156.275 924.097 162.028 928.119 169.798C931.185 175.72 933.237 180.508 933.396 183.135C933.429 183.689 933.349 184.191 932.969 184.249C932.59 184.306 931.951 183.881 931.357 183.672C929.048 182.862 924.961 181.085 919.324 181.085C912.76 181.084 907.099 181.137 902.667 182.404C899.702 183.251 895.425 184.687 883.851 190.206C872.276 195.726 853.959 205.047 841.053 212.559C828.147 220.07 820.872 225.605 815.236 230.375C809.6 235.145 805.517 238.874 802.143 243.391Z" fill="#00C3D9"/>
</g>
<defs>
<filter id="filter0_f_1429_2119" x="0" y="0" width="1120.95" height="1037.07" filterUnits="userSpaceOnUse" color-interpolation-filters="sRGB">
<feFlood flood-opacity="0" result="BackgroundImageFix"/>
<feBlend mode="normal" in="SourceGraphic" in2="BackgroundImageFix" result="shape"/>
<feGaussianBlur stdDeviation="54" result="effect1_foregroundBlur_1429_2119"/>
</filter>
<filter id="filter1_f_1429_2119" x="51.2324" y="62.2949" width="971.464" height="919.856" filterUnits="userSpaceOnUse" color-interpolation-filters="sRGB">
<feFlood flood-opacity="0" result="BackgroundImageFix"/>
<feBlend mode="normal" in="SourceGraphic" in2="BackgroundImageFix" result="shape"/>
<feGaussianBlur stdDeviation="30" result="effect1_foregroundBlur_1429_2119"/>
</filter>
<filter id="filter2_f_1429_2119" x="452.398" y="18.6562" width="677.672" height="700.812" filterUnits="userSpaceOnUse" color-interpolation-filters="sRGB">
<feFlood flood-opacity="0" result="BackgroundImageFix"/>
<feBlend mode="normal" in="SourceGraphic" in2="BackgroundImageFix" result="shape"/>
<feGaussianBlur stdDeviation="84" result="effect1_foregroundBlur_1429_2119"/>
</filter>
<filter id="filter3_f_1429_2119" x="26.1582" y="363.332" width="762.556" height="715.714" filterUnits="userSpaceOnUse" color-interpolation-filters="sRGB">
<feFlood flood-opacity="0" result="BackgroundImageFix"/>
<feBlend mode="normal" in="SourceGraphic" in2="BackgroundImageFix" result="shape"/>
<feGaussianBlur stdDeviation="84" result="effect1_foregroundBlur_1429_2119"/>
</filter>
<filter id="filter4_f_1429_2119" x="575.76" y="208.671" width="445.357" height="427.816" filterUnits="userSpaceOnUse" color-interpolation-filters="sRGB">
<feFlood flood-opacity="0" result="BackgroundImageFix"/>
<feBlend mode="normal" in="SourceGraphic" in2="BackgroundImageFix" result="shape"/>
<feGaussianBlur stdDeviation="46" result="effect1_foregroundBlur_1429_2119"/>
</filter>
<filter id="filter5_f_1429_2119" x="203.866" y="582.859" width="424.92" height="374.815" filterUnits="userSpaceOnUse" color-interpolation-filters="sRGB">
<feFlood flood-opacity="0" result="BackgroundImageFix"/>
<feBlend mode="normal" in="SourceGraphic" in2="BackgroundImageFix" result="shape"/>
<feGaussianBlur stdDeviation="54" result="effect1_foregroundBlur_1429_2119"/>
</filter>
<filter id="filter6_f_1429_2119" x="666.922" y="18.8472" width="390.48" height="365.858" filterUnits="userSpaceOnUse" color-interpolation-filters="sRGB">
<feFlood flood-opacity="0" result="BackgroundImageFix"/>
<feBlend mode="normal" in="SourceGraphic" in2="BackgroundImageFix" result="shape"/>
<feGaussianBlur stdDeviation="62" result="effect1_foregroundBlur_1429_2119"/>
</filter>
</defs>
</svg>
